Coordinates
version=1
nRows=43
nColumns=12
inDegrees=yes

Units are S.I. units (second, meters, Newtons, ...)
Angles are in degrees

endheader
time	SC_y	SC_z	SC_x	AC_y	AC_z	AC_x	GH_y	GH_z	GH_yy	EL_x	PS_y
       0.0              -13.32          16.48          43.56          48.27         -14.15           5.17          53.65           72.2         -159.9          108.9          104.9
   0.04022              -13.33          16.48          43.56          48.27         -14.15          5.169          53.66           72.2         -159.9          108.9          104.9
   0.08045              -13.33          16.48          43.56          48.27         -14.15          5.169          53.68          72.19         -159.8          108.9          104.9
    0.1207              -13.33          16.48          43.56          48.27         -14.15          5.169           53.7          72.19         -159.7          108.8          104.9
    0.1609              -13.34          16.49          43.55          48.27         -14.15          5.169          53.72          72.18         -159.7          108.8          104.9
    0.2011              -13.34          16.49          43.55          48.27         -14.15          5.168          53.74          72.18         -159.6          108.8          104.9
    0.2413              -13.35          16.49          43.55          48.27         -14.15          5.168          53.76          72.17         -159.6          108.8          104.9
    0.2816              -13.35          16.49          43.54          48.27         -14.15          5.168          53.78          72.17         -159.5          108.8          104.8
    0.3218              -13.36           16.5          43.54          48.27         -14.15          5.167          53.81          72.16         -159.4          108.8          104.8
     0.362              -13.36           16.5          43.53          48.27         -14.15          5.167          53.84          72.15         -159.3          108.8          104.8
    0.4022              -13.37          16.51          43.53          48.27         -14.15          5.167          53.87          72.14         -159.2          108.8          104.8
    0.4425              -13.38          16.51          43.52          48.27         -14.15          5.166           53.9          72.14         -159.2          108.7          104.8
    0.4827              -13.38          16.52          43.52          48.27         -14.15          5.166          53.93          72.13         -159.0          108.7          104.8
    0.5229              -13.39          16.52          43.51          48.27         -14.15          5.165          53.97          72.12         -158.9          108.7          104.8
    0.5631               -13.4          16.53          43.51          48.27         -14.15          5.165          54.01          72.11         -158.8          108.7          104.8
    0.6034              -13.41          16.53           43.5          48.27         -14.15          5.164          54.05           72.1         -158.7          108.7          104.8
    0.6436              -13.42          16.54          43.49          48.27         -14.15          5.164           54.1          72.08         -158.6          108.7          104.8
    0.6838              -13.43          16.55          43.48          48.27         -14.15          5.163          54.15          72.07         -158.4          108.6          104.8
     0.724              -13.44          16.55          43.47          48.27         -14.15          5.162           54.2          72.06         -158.2          108.6          104.8
    0.7643              -13.46          16.56          43.46          48.27         -14.15          5.162          54.26          72.04         -158.0          108.6          104.8
    0.8045              -13.47          16.57          43.45          48.27         -14.15          5.161          54.33          72.02         -157.8          108.5          104.7
    0.8447              -13.49          16.58          43.44          48.27         -14.15           5.16           54.4          72.01         -157.6          108.5          104.7
    0.8849              -13.51          16.59          43.43          48.27         -14.15          5.159          54.49          71.99         -157.4          108.5          104.7
    0.9252              -13.52          16.61          43.41          48.28         -14.15          5.158          54.58          71.96         -157.1          108.4          104.7
    0.9654              -13.55          16.62           43.4          48.28         -14.15          5.156          54.68          71.94         -156.8          108.4          104.7
     1.006              -13.57          16.64          43.38          48.28         -14.15          5.155          54.79          71.91         -156.5          108.3          104.7
     1.046               -13.6          16.65          43.36          48.28         -14.15          5.153          54.91          71.88         -156.1          108.3          104.6
     1.086              -13.63          16.67          43.34          48.28         -14.15          5.152          55.05          71.84         -155.7          108.2          104.6
     1.126              -13.66          16.69          43.31          48.28         -14.15           5.15          55.21           71.8         -155.2          108.1          104.6
     1.167               -13.7          16.72          43.28          48.28         -14.15          5.147          55.39          71.75         -154.7          108.0          104.5
     1.207              -13.75          16.75          43.25          48.28         -14.15          5.145           55.6           71.7         -154.0          107.9          104.5
     1.247               -13.8          16.78          43.21          48.28         -14.15          5.142          55.84          71.64         -153.3          107.8          104.5
     1.287              -13.86          16.82          43.17          48.29         -14.14          5.138          56.11          71.57         -152.5          107.7          104.4
     1.327              -13.93          16.86          43.12          48.29         -14.14          5.134          56.43          71.49         -151.6          107.5          104.3
     1.368              -14.01          16.92          43.06          48.29         -14.14          5.129           56.8          71.39         -150.4          107.4          104.3
     1.408               -14.1          16.98          42.98          48.29         -14.14          5.124          57.24          71.28         -149.1          107.1          104.2
     1.448              -14.21          17.05           42.9           48.3         -14.14          5.117          57.76          71.15         -147.6          106.9          104.1
     1.488              -14.35          17.14           42.8           48.3         -14.14          5.109          58.38          70.99         -145.7          106.6          104.0
     1.529              -14.51          17.24          42.68           48.3         -14.14            5.1          59.14          70.79         -143.4          106.2          103.8
     1.569              -14.71          17.37          42.53          48.31         -14.14          5.088          60.06          70.56         -140.7          105.8          103.6
     1.609              -14.96          17.53          42.34          48.32         -14.14          5.073           61.2          70.27         -137.3          105.2          103.4
     1.649              -15.27          17.73          42.11          48.33         -14.13          5.055          62.62           69.9         -133.0          104.6          103.2
     1.689              -15.66          17.98          41.83          48.34         -14.13          5.033           64.4          69.45         -127.6          103.7          102.8
